# xmcd
#
# Track frame offsets:
# 150
# 10533
# 22632
# 36013
# 49401
# 62974
# 75544
# 87943
# 103121
# 115746
# 128799
# 140850
# 155020
# 170338
#
# Disc length: 2411 seconds
#
#
# Revision: 0
# Processed by: cddbd v1.5.2PL0 Copyright (c) Steve Scherf et al.
# Submitted via: FreeRIP 2.95 
#
DISCID=af09690e
DTITLE=Irmãs Galvão - Luar do Sertão
DYEAR=1900
DGENRE=
TTITLE0=Recordações
TTITLE1=Falso Carinho
TTITLE2=Não Me Abandones
TTITLE3=Mestiço
TTITLE4=Coração Sabe O Que FAz
TTITLE5=Rincão Guarani
TTITLE6=Triste Lembrança
TTITLE7=Quando A Saudade Se For
TTITLE8=Céu De Goiás
TTITLE9=Fim De Baile
TTITLE10=Pecado Louro
TTITLE11=Alecrim da Beira D´Agua
TTITLE12=Caboclo Do Paraná
TTITLE13=Fronteiriça
EXTD=
EXTT0=
EXTT1=
EXTT2=
EXTT3=
EXTT4=
EXTT5=
EXTT6=
EXTT7=
EXTT8=
EXTT9=
EXTT10=
EXTT11=
EXTT12=
EXTT13=
PLAYORDER=
